<svg width="1600" height="1320" viewBox="0 0 1600 1320" fill="none" xmlns="http://www.w3.org/2000/svg">
  <rect width="1600" height="1320" fill="#EFE7DB"/>
  <rect width="1600" height="1320" fill="url(#paint0_radial)"/>
  <rect x="126" y="114" width="1348" height="1092" rx="54" fill="url(#paint1_linear)" fill-opacity="0.68" stroke="rgba(255,255,255,0.45)"/>
  <rect x="206" y="210" width="1188" height="896" rx="38" fill="#F7F2EA" fill-opacity="0.46" stroke="#FFF9F2" stroke-opacity="0.34"/>
  <rect x="354" y="324" width="892" height="630" rx="32" fill="#F1E8DB"/>
  <rect x="392" y="362" width="816" height="554" rx="24" fill="#DCE3E8"/>
  <rect x="452" y="432" width="696" height="414" rx="18" fill="#6A7F91" fill-opacity="0.2"/>
  <circle cx="944" cy="538" r="154" fill="#FAF7F1" fill-opacity="0.72"/>
  <ellipse cx="664" cy="644" rx="180" ry="166" fill="#91A2B0" fill-opacity="0.36"/>
  <path d="M494 826C494 702.99 575.984 603.25 677.1 603.25C778.216 603.25 860.2 702.99 860.2 826V846H494V826Z" fill="#314656" fill-opacity="0.24"/>
  <rect x="478" y="1008" width="372" height="16" rx="8" fill="#FFF9F2" fill-opacity="0.66"/>
  <rect x="478" y="1048" width="480" height="10" rx="5" fill="#FFF9F2" fill-opacity="0.42"/>
  <defs>
    <radialGradient id="paint0_radial" cx="0" cy="0" r="1" gradientUnits="userSpaceOnUse" gradientTransform="translate(1224 180) rotate(132.756) scale(923.07 834.327)">
      <stop stop-color="#FBF8F3"/>
      <stop offset="1" stop-color="#EFE7DB" stop-opacity="0.14"/>
    </radialGradient>
    <linearGradient id="paint1_linear" x1="216" y1="164" x2="1358" y2="1136" gradientUnits="userSpaceOnUse">
      <stop stop-color="#FFFFFC" stop-opacity="0.82"/>
      <stop offset="1" stop-color="#E9DFD2" stop-opacity="0.18"/>
    </linearGradient>
  </defs>
</svg>
