<svg width="96" height="96" viewBox="0 0 96 96" fill="none" xmlns="http://www.w3.org/2000/svg">
  <rect width="96" height="96" rx="28" fill="#F6F1E8"/>
  <rect x="10" y="10" width="76" height="76" rx="24" fill="url(#paint0_linear)" stroke="#D9CDBE"/>
  <path d="M60.642 33.156C57.66 30.678 53.974 29.438 49.584 29.438C43.98 29.438 39.476 31.276 36.072 34.952C32.668 38.628 30.966 43.254 30.966 48.83C30.966 54.406 32.65 58.996 36.018 62.6C39.422 66.168 43.89 67.952 49.422 67.952C53.794 67.952 57.498 66.712 60.534 64.234L57.654 59.722C55.122 61.686 52.134 62.668 48.69 62.668C45.102 62.668 42.168 61.464 39.888 59.056C37.644 56.612 36.522 53.204 36.522 48.83C36.522 44.42 37.662 40.976 39.942 38.498C42.258 35.984 45.228 34.726 48.852 34.726C52.188 34.726 55.104 35.726 57.6 37.726L60.642 33.156Z" fill="#314656"/>
  <defs>
    <linearGradient id="paint0_linear" x1="18" y1="14" x2="82" y2="82" gradientUnits="userSpaceOnUse">
      <stop stop-color="#FCFAF5"/>
      <stop offset="1" stop-color="#ECE2D7"/>
    </linearGradient>
  </defs>
</svg>

